<?xml version="1.0" encoding="UTF-8" standalone="no"?><!-- Generator: Gravit.io --><svg xmlns="http://www.w3.org/2000/svg" xmlns:xlink="http://www.w3.org/1999/xlink" style="isolation:isolate" viewBox="0 0 75 48" width="75pt" height="48pt"><path d=" M 32.321 10.317 C 33.516 10.317 34.485 9.351 34.485 8.158 C 34.485 6.966 33.516 6 32.321 6 C 31.125 6 30.157 6.966 30.157 8.158 C 30.157 9.351 31.125 10.317 32.321 10.317 Z " fill="rgb(246,248,252)"/><path d=" M 34.755 40.805 C 35.95 40.805 36.919 39.839 36.919 38.647 C 36.919 37.455 35.95 36.488 34.755 36.488 C 33.56 36.488 32.591 37.455 32.591 38.647 C 32.591 39.839 33.56 40.805 34.755 40.805 Z " fill="rgb(246,248,252)"/><path d=" M 32.939 15.713 C 33.942 15.713 34.755 14.902 34.755 13.901 C 34.755 12.901 33.942 12.09 32.939 12.09 C 31.936 12.09 31.123 12.901 31.123 13.901 C 31.123 14.902 31.936 15.713 32.939 15.713 Z " fill="rgb(246,248,252)"/><path d=" M 37.77 16.406 C 38.773 16.406 39.586 15.595 39.586 14.595 C 39.586 13.594 38.773 12.783 37.77 12.783 C 36.767 12.783 35.954 13.594 35.954 14.595 C 35.954 15.595 36.767 16.406 37.77 16.406 Z " fill="rgb(246,248,252)"/><path d=" M 32.321 20.299 C 33.175 20.299 33.867 19.609 33.867 18.758 C 33.867 17.906 33.175 17.216 32.321 17.216 C 31.467 17.216 30.775 17.906 30.775 18.758 C 30.775 19.609 31.467 20.299 32.321 20.299 Z " fill="rgb(246,248,252)"/><path d=" M 37.151 20.956 C 38.005 20.956 38.697 20.265 38.697 19.414 C 38.697 18.562 38.005 17.872 37.151 17.872 C 36.297 17.872 35.605 18.562 35.605 19.414 C 35.605 20.265 36.297 20.956 37.151 20.956 Z " fill="rgb(246,248,252)"/><path d=" M 41.016 22.459 C 41.869 22.459 42.561 21.768 42.561 20.917 C 42.561 20.065 41.869 19.375 41.016 19.375 C 40.162 19.375 39.47 20.065 39.47 20.917 C 39.47 21.768 40.162 22.459 41.016 22.459 Z " fill="rgb(246,248,252)"/><path d=" M 35.721 24.655 C 36.468 24.655 37.074 24.051 37.074 23.306 C 37.074 22.561 36.468 21.957 35.721 21.957 C 34.974 21.957 34.369 22.561 34.369 23.306 C 34.369 24.051 34.974 24.655 35.721 24.655 Z " fill="rgb(246,248,252)"/><path d=" M 30.891 24 C 31.638 24 32.244 23.396 32.244 22.651 C 32.244 21.906 31.638 21.302 30.891 21.302 C 30.144 21.302 29.539 21.906 29.539 22.651 C 29.539 23.396 30.144 24 30.891 24 Z " fill="rgb(246,248,252)"/><path d=" M 39.624 26.158 C 40.371 26.158 40.977 25.554 40.977 24.809 C 40.977 24.064 40.371 23.46 39.624 23.46 C 38.877 23.46 38.272 24.064 38.272 24.809 C 38.272 25.554 38.877 26.158 39.624 26.158 Z " fill="rgb(246,248,252)"/><path d=" M 33.789 27.469 C 34.43 27.469 34.949 26.951 34.949 26.313 C 34.949 25.674 34.43 25.156 33.789 25.156 C 33.149 25.156 32.63 25.674 32.63 26.313 C 32.63 26.951 33.149 27.469 33.789 27.469 Z " fill="rgb(246,248,252)"/><path d=" M 37.692 28.934 C 38.333 28.934 38.852 28.416 38.852 27.777 C 38.852 27.139 38.333 26.621 37.692 26.621 C 37.052 26.621 36.533 27.139 36.533 27.777 C 36.533 28.416 37.052 28.934 37.692 28.934 Z " fill="rgb(246,248,252)"/><path d=" M 28.997 26.775 C 29.638 26.775 30.157 26.257 30.157 25.618 C 30.157 24.98 29.638 24.462 28.997 24.462 C 28.357 24.462 27.838 24.98 27.838 25.618 C 27.838 26.257 28.357 26.775 28.997 26.775 Z " fill="rgb(246,248,252)"/><path d=" M 31.664 29.358 C 32.197 29.358 32.63 28.926 32.63 28.394 C 32.63 27.862 32.197 27.431 31.664 27.431 C 31.13 27.431 30.698 27.862 30.698 28.394 C 30.698 28.926 31.13 29.358 31.664 29.358 Z " fill="rgb(246,248,252)"/><path d=" M 33.325 32.017 C 33.795 32.017 34.176 31.638 34.176 31.169 C 34.176 30.701 33.795 30.321 33.325 30.321 C 32.856 30.321 32.475 30.701 32.475 31.169 C 32.475 31.638 32.856 32.017 33.325 32.017 Z " fill="rgb(246,248,252)"/><path d=" M 31.277 32.557 C 31.661 32.557 31.973 32.246 31.973 31.863 C 31.973 31.48 31.661 31.169 31.277 31.169 C 30.893 31.169 30.582 31.48 30.582 31.863 C 30.582 32.246 30.893 32.557 31.277 32.557 Z " fill="rgb(246,248,252)"/><path d=" M 29.461 30.552 C 29.93 30.552 30.311 30.173 30.311 29.704 C 30.311 29.236 29.93 28.856 29.461 28.856 C 28.991 28.856 28.611 29.236 28.611 29.704 C 28.611 30.173 28.991 30.552 29.461 30.552 Z " fill="rgb(246,248,252)"/><path d=" M 26.834 28.703 C 27.367 28.703 27.8 28.271 27.8 27.739 C 27.8 27.207 27.367 26.775 26.834 26.775 C 26.3 26.775 25.868 27.207 25.868 27.739 C 25.868 28.271 26.3 28.703 26.834 28.703 Z " fill="rgb(246,248,252)"/><path d=" M 26.795 21.456 C 27.328 21.456 27.761 21.024 27.761 20.492 C 27.761 19.96 27.328 19.528 26.795 19.528 C 26.261 19.528 25.829 19.96 25.829 20.492 C 25.829 21.024 26.261 21.456 26.795 21.456 Z " fill="rgb(246,248,252)"/><path d=" M 27.22 18.064 C 27.689 18.064 28.07 17.684 28.07 17.216 C 28.07 16.748 27.689 16.368 27.22 16.368 C 26.75 16.368 26.37 16.748 26.37 17.216 C 26.37 17.684 26.75 18.064 27.22 18.064 Z " fill="rgb(246,248,252)"/><path d=" M 28.147 15.289 C 28.532 15.289 28.843 14.978 28.843 14.595 C 28.843 14.212 28.532 13.901 28.147 13.901 C 27.763 13.901 27.452 14.212 27.452 14.595 C 27.452 14.978 27.763 15.289 28.147 15.289 Z " fill="rgb(246,248,252)"/><path d=" M 26.524 13.978 C 26.994 13.978 27.374 13.599 27.374 13.13 C 27.374 12.662 26.994 12.282 26.524 12.282 C 26.055 12.282 25.674 12.662 25.674 13.13 C 25.674 13.599 26.055 13.978 26.524 13.978 Z " fill="rgb(246,248,252)"/><path d=" M 35.528 30.822 C 36.062 30.822 36.494 30.39 36.494 29.858 C 36.494 29.326 36.062 28.895 35.528 28.895 C 34.995 28.895 34.562 29.326 34.562 29.858 C 34.562 30.39 34.995 30.822 35.528 30.822 Z " fill="rgb(246,248,252)"/><path d=" M 24.322 12.861 C 24.855 12.861 25.288 12.429 25.288 11.897 C 25.288 11.365 24.855 10.934 24.322 10.934 C 23.788 10.934 23.356 11.365 23.356 11.897 C 23.356 12.429 23.788 12.861 24.322 12.861 Z " fill="rgb(246,248,252)"/><path d=" M 24.979 16.947 C 25.512 16.947 25.945 16.515 25.945 15.983 C 25.945 15.451 25.512 15.02 24.979 15.02 C 24.445 15.02 24.013 15.451 24.013 15.983 C 24.013 16.515 24.445 16.947 24.979 16.947 Z " fill="rgb(246,248,252)"/><path d=" M 23.897 20.839 C 24.537 20.839 25.056 20.321 25.056 19.683 C 25.056 19.044 24.537 18.526 23.897 18.526 C 23.257 18.526 22.737 19.044 22.737 19.683 C 22.737 20.321 23.257 20.839 23.897 20.839 Z " fill="rgb(246,248,252)"/><path d=" M 20.38 20.839 C 21.127 20.839 21.732 20.235 21.732 19.49 C 21.732 18.745 21.127 18.141 20.38 18.141 C 19.633 18.141 19.027 18.745 19.027 19.49 C 19.027 20.235 19.633 20.839 20.38 20.839 Z " fill="rgb(246,248,252)"/><path d=" M 16.284 21.764 C 17.138 21.764 17.83 21.074 17.83 20.222 C 17.83 19.371 17.138 18.681 16.284 18.681 C 15.43 18.681 14.738 19.371 14.738 20.222 C 14.738 21.074 15.43 21.764 16.284 21.764 Z " fill="rgb(246,248,252)"/><path d=" M 11.801 23.962 C 12.804 23.962 13.618 23.151 13.618 22.15 C 13.618 21.15 12.804 20.339 11.801 20.339 C 10.798 20.339 9.985 21.15 9.985 22.15 C 9.985 23.151 10.798 23.962 11.801 23.962 Z " fill="rgb(246,248,252)"/><path d=" M 7.164 27.662 C 8.359 27.662 9.328 26.695 9.328 25.503 C 9.328 24.311 8.359 23.345 7.164 23.345 C 5.969 23.345 5 24.311 5 25.503 C 5 26.695 5.969 27.662 7.164 27.662 Z " fill="rgb(246,248,252)"/><path d=" M 9.985 19.452 C 10.989 19.452 11.802 18.641 11.802 17.641 C 11.802 16.64 10.989 15.829 9.985 15.829 C 8.982 15.829 8.169 16.64 8.169 17.641 C 8.169 18.641 8.982 19.452 9.985 19.452 Z " fill="rgb(246,248,252)"/><path d=" M 14.468 17.254 C 15.321 17.254 16.013 16.564 16.013 15.713 C 16.013 14.861 15.321 14.171 14.468 14.171 C 13.614 14.171 12.922 14.861 12.922 15.713 C 12.922 16.564 13.614 17.254 14.468 17.254 Z " fill="rgb(246,248,252)"/><path d=" M 13.81 13.169 C 14.664 13.169 15.356 12.478 15.356 11.627 C 15.356 10.775 14.664 10.085 13.81 10.085 C 12.957 10.085 12.265 10.775 12.265 11.627 C 12.265 12.478 12.957 13.169 13.81 13.169 Z " fill="rgb(246,248,252)"/><path d=" M 17.907 12.244 C 18.654 12.244 19.259 11.64 19.259 10.895 C 19.259 10.15 18.654 9.546 17.907 9.546 C 17.16 9.546 16.554 10.15 16.554 10.895 C 16.554 11.64 17.16 12.244 17.907 12.244 Z " fill="rgb(246,248,252)"/><path d=" M 21.423 12.244 C 22.063 12.244 22.582 11.727 22.582 11.088 C 22.582 10.449 22.063 9.932 21.423 9.932 C 20.783 9.932 20.264 10.449 20.264 11.088 C 20.264 11.727 20.783 12.244 21.423 12.244 Z " fill="rgb(246,248,252)"/><path d=" M 22.08 16.329 C 22.721 16.329 23.24 15.812 23.24 15.173 C 23.24 14.534 22.721 14.017 22.08 14.017 C 21.44 14.017 20.921 14.534 20.921 15.173 C 20.921 15.812 21.44 16.329 22.08 16.329 Z " fill="rgb(246,248,252)"/><path d=" M 18.564 16.368 C 19.311 16.368 19.916 15.764 19.916 15.019 C 19.916 14.274 19.311 13.67 18.564 13.67 C 17.817 13.67 17.211 14.274 17.211 15.019 C 17.211 15.764 17.817 16.368 18.564 16.368 Z " fill="rgb(246,248,252)"/><path d=" M 14.738 26.621 C 15.122 26.621 15.434 26.31 15.434 25.927 C 15.434 25.544 15.122 25.233 14.738 25.233 C 14.354 25.233 14.042 25.544 14.042 25.927 C 14.042 26.31 14.354 26.621 14.738 26.621 Z " fill="rgb(246,248,252)"/><path d=" M 17.52 26.274 C 17.99 26.274 18.371 25.894 18.371 25.426 C 18.371 24.958 17.99 24.578 17.52 24.578 C 17.051 24.578 16.67 24.958 16.67 25.426 C 16.67 25.894 17.051 26.274 17.52 26.274 Z " fill="rgb(246,248,252)"/><path d=" M 20.573 25.118 C 21.107 25.118 21.539 24.686 21.539 24.154 C 21.539 23.622 21.107 23.19 20.573 23.19 C 20.04 23.19 19.607 23.622 19.607 24.154 C 19.607 24.686 20.04 25.118 20.573 25.118 Z " fill="rgb(246,248,252)"/><path d=" M 21.307 28.201 C 21.948 28.201 22.467 27.684 22.467 27.045 C 22.467 26.406 21.948 25.889 21.307 25.889 C 20.667 25.889 20.148 26.406 20.148 27.045 C 20.148 27.684 20.667 28.201 21.307 28.201 Z " fill="rgb(246,248,252)"/><path d=" M 17.598 28.933 C 18.132 28.933 18.564 28.502 18.564 27.97 C 18.564 27.437 18.132 27.006 17.598 27.006 C 17.065 27.006 16.632 27.437 16.632 27.97 C 16.632 28.502 17.065 28.933 17.598 28.933 Z " fill="rgb(246,248,252)"/><path d=" M 14.313 28.895 C 14.783 28.895 15.163 28.516 15.163 28.047 C 15.163 27.579 14.783 27.199 14.313 27.199 C 13.843 27.199 13.463 27.579 13.463 28.047 C 13.463 28.516 13.843 28.895 14.313 28.895 Z " fill="rgb(246,248,252)"/><path d=" M 14.351 31.554 C 14.885 31.554 15.317 31.123 15.317 30.591 C 15.317 30.058 14.885 29.627 14.351 29.627 C 13.818 29.627 13.385 30.058 13.385 30.591 C 13.385 31.123 13.818 31.554 14.351 31.554 Z " fill="rgb(246,248,252)"/><path d=" M 18.293 32.056 C 18.934 32.056 19.453 31.538 19.453 30.9 C 19.453 30.261 18.934 29.743 18.293 29.743 C 17.653 29.743 17.134 30.261 17.134 30.9 C 17.134 31.538 17.653 32.056 18.293 32.056 Z " fill="rgb(246,248,252)"/><path d=" M 22.892 31.555 C 23.639 31.555 24.245 30.951 24.245 30.206 C 24.245 29.46 23.639 28.856 22.892 28.856 C 22.145 28.856 21.54 29.46 21.54 30.206 C 21.54 30.951 22.145 31.555 22.892 31.555 Z " fill="rgb(246,248,252)"/><path d=" M 25.597 34.908 C 26.45 34.908 27.142 34.218 27.142 33.366 C 27.142 32.515 26.45 31.824 25.597 31.824 C 24.743 31.824 24.051 32.515 24.051 33.366 C 24.051 34.218 24.743 34.908 25.597 34.908 Z " fill="rgb(246,248,252)"/><path d=" M 19.916 35.37 C 20.663 35.37 21.269 34.766 21.269 34.021 C 21.269 33.276 20.663 32.672 19.916 32.672 C 19.169 32.672 18.564 33.276 18.564 34.021 C 18.564 34.766 19.169 35.37 19.916 35.37 Z " fill="rgb(246,248,252)"/><path d=" M 16.709 37.991 C 17.456 37.991 18.061 37.387 18.061 36.642 C 18.061 35.897 17.456 35.293 16.709 35.293 C 15.962 35.293 15.356 35.897 15.356 36.642 C 15.356 37.387 15.962 37.991 16.709 37.991 Z " fill="rgb(246,248,252)"/><path d=" M 19.375 41.383 C 20.229 41.383 20.921 40.693 20.921 39.842 C 20.921 38.99 20.229 38.3 19.375 38.3 C 18.521 38.3 17.829 38.99 17.829 39.842 C 17.829 40.693 18.521 41.383 19.375 41.383 Z " fill="rgb(246,248,252)"/><path d=" M 26.486 42 C 27.489 42 28.302 41.189 28.302 40.189 C 28.302 39.188 27.489 38.377 26.486 38.377 C 25.483 38.377 24.669 39.188 24.669 40.189 C 24.669 41.189 25.483 42 26.486 42 Z " fill="rgb(246,248,252)"/><path d=" M 22.583 38.762 C 23.436 38.762 24.128 38.072 24.128 37.221 C 24.128 36.369 23.436 35.679 22.583 35.679 C 21.729 35.679 21.037 36.369 21.037 37.221 C 21.037 38.072 21.729 38.762 22.583 38.762 Z " fill="rgb(246,248,252)"/><path d=" M 29.461 38.146 C 30.464 38.146 31.278 37.335 31.278 36.334 C 31.278 35.334 30.464 34.523 29.461 34.523 C 28.458 34.523 27.645 35.334 27.645 36.334 C 27.645 37.335 28.458 38.146 29.461 38.146 Z " fill="rgb(246,248,252)"/><path d=" M 15.086 34.677 C 15.726 34.677 16.245 34.159 16.245 33.521 C 16.245 32.882 15.726 32.364 15.086 32.364 C 14.445 32.364 13.926 32.882 13.926 33.521 C 13.926 34.159 14.445 34.677 15.086 34.677 Z " fill="rgb(246,248,252)"/><path d=" M 60 8 L 61 8 L 61 40 L 60 40 L 60 8 L 60 8 Z " fill="rgb(246,248,252)"/></svg>