<svg xmlns="http://www.w3.org/2000/svg" viewBox="33 33 918 918" width="886" height="886"><g><circle fill="#efeff4" cx="671.13" cy="165.32" r="45.32"/><circle fill="#efeff4" cx="683.51" cy="284.21" r="38.37"/><circle fill="#efeff4" cx="784.12" cy="298.58" r="38.28"/><circle fill="#efeff4" cx="771.77" cy="399.97" r="32.74"/><circle fill="#efeff4" cx="852.28" cy="430.96" r="32.95"/><circle fill="#efeff4" cx="670.57" cy="386.13" r="33.54"/><circle fill="#efeff4" cx="641.32" cy="467.75" r="28.13"/><circle fill="#efeff4" cx="742.02" cy="481.52" r="27.92"/><circle fill="#efeff4" cx="822.4" cy="512.34" r="28.17"/><circle fill="#efeff4" cx="782.53" cy="574.48" r="23.76"/><circle fill="#efeff4" cx="701.84" cy="543.39" r="24.28"/><circle fill="#efeff4" cx="601.2" cy="529.44" r="24.06"/><circle fill="#efeff4" cx="657" cy="586.87" r="20.97"/><circle fill="#efeff4" cx="737.69" cy="617.85" r="21.15"/><circle fill="#efeff4" cx="692.08" cy="645.24" r="16.67"/><circle fill="#efeff4" cx="648.93" cy="659.21" r="15.15"/><circle fill="#efeff4" cx="611.38" cy="615.07" r="17.99"/><circle fill="#efeff4" cx="556.22" cy="573.1" r="20.92"/><circle fill="#efeff4" cx="721.36" cy="801.22" r="45.09"/><circle fill="#efeff4" cx="611.64" cy="753.46" r="37.61"/><circle fill="#efeff4" cx="549.19" cy="832.07" r="37.93"/><circle fill="#efeff4" cx="530.19" cy="691.22" r="32.85"/><circle fill="#efeff4" cx="467.77" cy="771.32" r="32.77"/><circle fill="#efeff4" cx="400.69" cy="825.79" r="32.66"/><circle fill="#efeff4" cx="344.53" cy="759.44" r="27.84"/><circle fill="#efeff4" cx="411.82" cy="704.84" r="27.89"/><circle fill="#efeff4" cx="474.59" cy="624.79" r="27.92"/><circle fill="#efeff4" cx="378.4" cy="639.23" r="24.16"/><circle fill="#efeff4" cx="311.44" cy="693.76" r="23.96"/><circle fill="#efeff4" cx="295.94" cy="633.06" r="20.74"/><circle fill="#efeff4" cx="295.19" cy="579.83" r="17.79"/><circle fill="#efeff4" cx="304.37" cy="535.74" r="15.14"/><circle fill="#efeff4" cx="362.3" cy="525.4" r="17.99"/><circle fill="#efeff4" cx="425.7" cy="498.37" r="20.96"/><circle fill="#efeff4" cx="440.91" cy="559.03" r="23.85"/><circle fill="#efeff4" cx="363.14" cy="578.73" r="20.78"/><circle fill="#efeff4" cx="145.29" cy="527.31" r="44.95"/><circle fill="#efeff4" cx="242.46" cy="456.62" r="38.5"/><circle fill="#efeff4" cx="204.36" cy="362.33" r="38.3"/><circle fill="#efeff4" cx="298.06" cy="322.58" r="32.83"/><circle fill="#efeff4" cx="336.42" cy="416.63" r="32.94"/><circle fill="#efeff4" cx="421.67" cy="401.56" r="28.05"/><circle fill="#efeff4" cx="495.39" cy="405.38" r="24.15"/><circle fill="#efeff4" cx="556.22" cy="422.62" r="20.34"/><circle fill="#efeff4" cx="564.02" cy="354.08" r="17.74"/><circle fill="#efeff4" cx="517.23" cy="328.37" r="20.55"/><circle fill="#efeff4" cx="457.12" cy="311.18" r="24.02"/><circle fill="#efeff4" cx="383.63" cy="307.57" r="28.07"/><circle fill="#efeff4" cx="284.52" cy="237.09" r="31.84"/><circle fill="#efeff4" cx="369.7" cy="222.01" r="28.09"/><circle fill="#efeff4" cx="443.4" cy="225.88" r="24.22"/><circle fill="#efeff4" cx="503.8" cy="243.14" r="20.39"/><circle fill="#efeff4" cx="550.23" cy="268.93" r="18.23"/><circle fill="#efeff4" cx="584.15" cy="299.21" r="15"/></g></svg>