<svg xmlns="http://www.w3.org/2000/svg" viewBox="0 0 104 99"><g fill="#505050" fill-rule="nonzero"><path d="M75.09 12a6 6 0 1 0 0-12 6 6 0 0 0 0 12zM76.76 16.7a5.07 5.07 0 1 0 5.07 5.07 5.06 5.06 0 0 0-5.07-5.07zM79.47 35.06a4.29 4.29 0 1 0-4.29 4.28 4.28 4.28 0 0 0 4.29-4.28zM71.27 49.48a3.67 3.67 0 1 0-3.66-3.66 3.66 3.66 0 0 0 3.66 3.66zM62.85 53.94A3.15 3.15 0 1 0 66 50.8a3.13 3.13 0 0 0-3.15 3.14zM60.09 62.41a2.71 2.71 0 1 0-2.7-2.7 2.7 2.7 0 0 0 2.7 2.7zM89 28.58a5.09 5.09 0 1 0-3.79-6.11A5.1 5.1 0 0 0 89 28.58zM87.47 41.21a4.31 4.31 0 1 0 1.959-8.395 4.31 4.31 0 0 0-1.959 8.395zM83.74 51.25A3.64 3.64 0 1 0 81 46.88a3.62 3.62 0 0 0 2.74 4.37zM78.55 58.89a3.12 3.12 0 1 0 1.435-6.073 3.12 3.12 0 0 0-1.435 6.073zM73.92 59a2.68 2.68 0 1 0 2 3.21 2.67 2.67 0 0 0-2-3.21zM67.83 62.94a2.3 2.3 0 1 0 1.72 2.76 2.31 2.31 0 0 0-1.72-2.76zM100.91 37a4.34 4.34 0 1 0-3.813 7.798A4.34 4.34 0 0 0 100.91 37zM96.69 48.33a3.699 3.699 0 1 0-3.2 6.67 3.68 3.68 0 0 0 3.2-6.63v-.04zM91.25 56.93a3.18 3.18 0 1 0-2.764 5.728 3.18 3.18 0 0 0 2.764-5.728zM82.72 68.06a2.76 2.76 0 1 0-1.29-3.69 2.77 2.77 0 0 0 1.29 3.69zM76.89 71.32a2.35 2.35 0 1 0 2.041-4.234 2.35 2.35 0 0 0-2.041 4.234zM73.13 69.29a2 2 0 1 0-1.71 3.616 2 2 0 0 0 1.71-3.616zM84.91 84.49a6 6 0 1 0-6.017 10.383A6 6 0 0 0 84.91 84.49zM69.94 78.85a5.07 5.07 0 1 0-5.06 8.787 5.07 5.07 0 0 0 5.06-8.787zM60.39 77.38A4.28 4.28 0 1 0 54.54 79a4.27 4.27 0 0 0 5.85-1.62zM47.48 69.66a3.66 3.66 0 1 0-1.34-5 3.65 3.65 0 0 0 1.34 5zM47.64 59.42a3.15 3.15 0 1 0-5.46-3.142 3.15 3.15 0 0 0 5.46 3.142zM40.52 48.51a2.7 2.7 0 1 0 4.688 2.68 2.7 2.7 0 0 0-4.688-2.68zM55.41 90.42a5.09 5.09 0 1 0 7.19-.23 5.1 5.1 0 0 0-7.19.23zM45.22 82.82a4.31 4.31 0 1 0 6.09-.2 4.32 4.32 0 0 0-6.09.2zM43.69 79.56a3.64 3.64 0 1 0-5.32-4.97 3.64 3.64 0 0 0 5.32 4.97zM38.9 70.52a3.11 3.11 0 1 0-4.54-4.252 3.11 3.11 0 0 0 4.54 4.252zM32.83 62.35a2.67 2.67 0 1 0 3.637-3.91 2.67 2.67 0 0 0-3.637 3.91zM36.18 55a2.3 2.3 0 1 0-3.24.11 2.29 2.29 0 0 0 3.24-.11zM37.26 89.39a4.33 4.33 0 1 0 6 1.14 4.34 4.34 0 0 0-6-1.14zM35.41 82.13a3.68 3.68 0 1 0-1 5.12 3.69 3.69 0 0 0 1-5.12zM30.55 73.82a3.18 3.18 0 1 0-5.247 3.594 3.18 3.18 0 0 0 5.247-3.594zM27.43 69.87a2.76 2.76 0 1 0-3.098-4.568 2.76 2.76 0 0 0 3.098 4.568zM24.4 58.62a2.36 2.36 0 1 0 2.674 3.89 2.36 2.36 0 0 0-2.674-3.89zM28.58 53.59a2 2 0 1 0-3.297 2.264 2 2 0 0 0 3.297-2.264zM3 48.58a6 6 0 1 0 5.972 10.408A6 6 0 0 0 3 48.58zM23.21 41.9a5.07 5.07 0 1 0-1.86 6.93 5.06 5.06 0 0 0 1.86-6.93zM27.41 41.3a4.29 4.29 0 1 0 7.44-4.273 4.29 4.29 0 0 0-7.44 4.273zM45.56 35.34a3.66 3.66 0 1 0-1.34 5 3.65 3.65 0 0 0 1.34-5zM54.79 36.12a3.14 3.14 0 1 0-5.438 3.14 3.14 3.14 0 0 0 5.438-3.14zM61.36 42.26a2.7 2.7 0 1 0-2.692-4.68 2.7 2.7 0 0 0 2.692 4.68zM15.22 36.8a5.09 5.09 0 1 0-6.34-3.4 5.1 5.1 0 0 0 6.34 3.4zM24.94 22.56a4.31 4.31 0 1 0 5.37 2.88 4.32 4.32 0 0 0-5.37-2.88zM36.33 21.21a3.65 3.65 0 1 0 4.54 2.44 3.64 3.64 0 0 0-4.54-2.44zM46.2 22.26a3.12 3.12 0 1 0 3.88 2.08 3.11 3.11 0 0 0-3.88-2.08zM55.78 30.11A2.67 2.67 0 1 0 54.24 25a2.673 2.673 0 0 0 1.54 5.12v-.01zM63.35 30.26a2.3 2.3 0 1 0-4.402 1.334 2.3 2.3 0 0 0 4.402-1.334zM24.61 19.9a4.33 4.33 0 1 0-4.64-4 4.35 4.35 0 0 0 4.64 4zM35.81 17.3a3.68 3.68 0 1 0-3.93-3.4 3.69 3.69 0 0 0 3.93 3.4zM45.44 17.26a3.18 3.18 0 1 0-.536-6.337 3.18 3.18 0 0 0 .536 6.337zM53.38 19.11a2.77 2.77 0 1 0-.153-5.538 2.77 2.77 0 0 0 .153 5.538zM59.5 22.09a2.37 2.37 0 1 0-2.5-2.18 2.36 2.36 0 0 0 2.5 2.18zM63.94 25.69a2 2 0 1 0-.29-3.99 2 2 0 0 0 .29 3.99z"/></g></svg>